<?xml version="1.0" encoding="UTF-8"?>
<svg version="1.1" xmlns="http://www.w3.org/2000/svg" width="512" height="512">
<path d="M0 0 C1.14831299 -0.01144043 2.29662598 -0.02288086 3.47973633 -0.03466797 C4.71232178 -0.0245166 5.94490723 -0.01436523 7.21484375 -0.00390625 C9.14203247 0.00745361 9.14203247 0.00745361 11.1081543 0.01904297 C80.10376838 1.17367549 141.70288087 33.96780874 189.25390625 82.31640625 C194.21801708 87.4728313 198.62422417 92.95873567 202.87109375 98.71240234 C204.14821424 100.42804629 205.45824603 102.11336678 206.77734375 103.796875 C218.88487739 119.46479753 240.15234375 147.11224825 240.15234375 167.43359375 C240.81234375 167.43359375 241.47234375 167.43359375 242.15234375 167.43359375 C242.25289063 166.28890625 242.25289063 166.28890625 242.35546875 165.12109375 C243.48727921 159.88369631 245.6610956 155.28459402 247.90234375 150.43359375 C248.63227539 148.85203491 248.63227539 148.85203491 249.37695312 147.23852539 C257.24716213 130.53926855 266.80101889 114.97935407 278.15234375 100.43359375 C278.83683594 99.53769531 279.52132813 98.64179688 280.2265625 97.71875 C292.5418599 81.9062079 307.14366119 66.51716929 323.15234375 54.43359375 C323.78446777 53.95212891 324.4165918 53.47066406 325.06787109 52.97460938 C341.00539102 40.90174313 358.02966528 30.86546301 376.15234375 22.43359375 C376.84666504 22.10794434 377.54098633 21.78229492 378.25634766 21.44677734 C398.08314615 12.27772127 419.34089707 6.21122687 440.89599609 2.79199219 C442.92925389 2.46902936 444.95726689 2.11345448 446.984375 1.75390625 C456.05266475 0.34392723 465.11279885 0.16914587 474.27734375 0.05859375 C476.18290039 0.01943848 476.18290039 0.01943848 478.12695312 -0.02050781 C489.61567374 -0.04197632 489.61567374 -0.04197632 494.15234375 4.43359375 C496.86967208 8.23154738 497.53578979 10.84590696 497.55078125 15.4921875 C497.55698486 16.67151855 497.56318848 17.85084961 497.56958008 19.06591797 C497.55564209 20.32162598 497.5417041 21.57733398 497.52734375 22.87109375 C497.51791748 24.17062988 497.50849121 25.47016602 497.4987793 26.80908203 C497.32277145 38.2180371 496.22256676 49.22314087 494.15234375 60.43359375 C493.99137207 61.33674316 493.83040039 62.23989258 493.66455078 63.17041016 C486.46086669 102.60729359 469.82233767 139.85523923 445.15234375 171.43359375 C444.39308594 172.40554688 443.63382812 173.3775 442.8515625 174.37890625 C430.51720777 189.75851019 416.71629874 204.31124571 401.15234375 216.43359375 C400.21648437 217.19800781 399.280625 217.96242188 398.31640625 218.75 C366.36362674 244.33686585 327.19722697 260.84660651 287.15234375 268.43359375 C286.34297363 268.59730469 285.53360352 268.76101563 284.69970703 268.9296875 C254.65844388 274.80086512 220.01582615 273.70622284 190.15234375 267.43359375 C188.62939697 267.12010986 188.62939697 267.12010986 187.07568359 266.80029297 C149.9318782 258.90804719 115.0678893 242.80454953 85.15234375 219.43359375 C84.18039063 218.67433594 83.2084375 217.91507813 82.20703125 217.1328125 C66.82742731 204.79845777 52.27469179 190.99754874 40.15234375 175.43359375 C39.00572266 174.02980469 39.00572266 174.02980469 37.8359375 172.59765625 C4.30231044 130.72099196 -14.70809336 76.35114766 -15.28515625 22.87109375 C-15.30747314 21.6277124 -15.32979004 20.38433105 -15.3527832 19.10327148 C-15.32460291 8.03298682 -15.32460291 8.03298682 -10.84765625 3.43359375 C-7.12195746 0.78390617 -4.55155939 0.04390805 0 0 Z " fill="#72DF00" transform="translate(14.84765625,240.56640625)"/>
<path d="M0 0 C1.90555664 -0.03915527 1.90555664 -0.03915527 3.84960938 -0.07910156 C15.33832999 -0.10057007 15.33832999 -0.10057007 19.875 4.375 C22.59232833 8.17295363 23.25844604 10.78731321 23.2734375 15.43359375 C23.27964111 16.6129248 23.28584473 17.79225586 23.29223633 19.00732422 C23.27829834 20.26303223 23.26436035 21.51874023 23.25 22.8125 C23.24057373 24.11203613 23.23114746 25.41157227 23.22143555 26.75048828 C23.0454277 38.15944335 21.94522301 49.16454712 19.875 60.375 C19.71402832 61.27814941 19.55305664 62.18129883 19.38720703 63.11181641 C12.18352294 102.54869984 -4.45500608 139.79664548 -29.125 171.375 C-29.88425781 172.34695313 -30.64351562 173.31890625 -31.42578125 174.3203125 C-43.76013598 189.69991644 -57.56104501 204.25265196 -73.125 216.375 C-74.06085938 217.13941406 -74.99671875 217.90382813 -75.9609375 218.69140625 C-110.93973597 246.70142096 -154.41419583 263.88385234 -198.5625 270.1875 C-199.38177979 270.31165283 -200.20105957 270.43580566 -201.04516602 270.5637207 C-208.03939201 271.46194611 -214.99324064 271.43220888 -222.03149414 271.4050293 C-223.63296673 271.40177769 -223.63296673 271.40177769 -225.2667923 271.39846039 C-227.88620841 271.3928292 -230.50559731 271.38494562 -233.125 271.375 C-233.28799192 258.10887247 -233.41197385 244.8429875 -233.4876852 231.57605839 C-233.52404362 225.41403108 -233.57327375 219.25269441 -233.65307617 213.09106445 C-233.72975895 207.13225565 -233.77112066 201.17410642 -233.7891407 195.21484184 C-233.80196382 192.95405142 -233.82700117 190.69329252 -233.8651104 188.43278694 C-234.09695631 174.09571914 -232.7340553 163.15208191 -226.125 150.375 C-225.44013176 148.96044035 -224.75972964 147.54371002 -224.08372498 146.12489319 C-222.19205353 142.15735162 -220.17822145 138.2609756 -218.125 134.375 C-217.61114746 133.39515137 -217.61114746 133.39515137 -217.08691406 132.39550781 C-201.40096767 102.73401179 -177.95935334 74.62994193 -151.125 54.375 C-150.49287598 53.89353516 -149.86075195 53.41207031 -149.20947266 52.91601562 C-133.27195273 40.84314938 -116.24767847 30.80686926 -98.125 22.375 C-97.43067871 22.04935059 -96.73635742 21.72370117 -96.02099609 21.38818359 C-76.1941976 12.21912752 -54.93644668 6.15263312 -33.38134766 2.73339844 C-31.34808986 2.41043561 -29.32007686 2.05486073 -27.29296875 1.6953125 C-18.224679 0.28533348 -9.1645449 0.11055212 0 0 Z " fill="#00BE00" transform="translate(489.125,240.625)"/>
<path d="M0 0 C0.96988861 0.00182281 1.93977722 0.00364563 2.9390564 0.00552368 C17.29056055 0.05091691 31.25442918 0.5562653 45.375 3.3125 C46.72053955 3.55395752 46.72053955 3.55395752 48.09326172 3.80029297 C71.5137916 8.03821607 94.03903704 15.81685679 115.375 26.3125 C116.02259277 26.62477539 116.67018555 26.93705078 117.33740234 27.25878906 C138.88956643 37.73812613 158.71188729 52.46877635 175.98583984 68.98632812 C177.20656372 70.15170108 178.44018228 71.30353547 179.67578125 72.453125 C184.03132063 76.60125774 186.05769653 79.50965267 186.75 85.625 C186.22261416 90.81096073 184.77323482 95.09444344 180.8671875 98.70703125 C176.31406404 101.70362181 171.69568793 102.2151167 166.375 101.3125 C160.67282371 98.97053474 157.24988084 95.25305476 153.0078125 90.8671875 C147.85899205 85.87115104 142.10557425 81.61427981 136.375 77.3125 C135.80620117 76.88291992 135.23740234 76.45333984 134.65136719 76.01074219 C87.68467531 40.76537376 27.96813039 25.58375275 -30.16674805 33.51025391 C-68.58049319 39.15428619 -104.74976999 53.66236282 -135.625 77.3125 C-136.84896484 78.24642578 -136.84896484 78.24642578 -138.09765625 79.19921875 C-143.44253695 83.3751715 -148.47734952 87.82573135 -153.42749023 92.45629883 C-159.53294509 98.15686891 -163.66951898 101.77769059 -172.20703125 101.65234375 C-176.43767461 101.0577299 -179.52430642 99.2021135 -182.625 96.3125 C-185.41858082 91.59833237 -186.21834221 87.75147024 -185.625 82.3125 C-183.48350145 77.00691883 -180.33228287 73.55012205 -176.3125 69.625 C-175.3853418 68.71089355 -175.3853418 68.71089355 -174.43945312 67.77832031 C-168.22554317 61.75643087 -161.58027985 56.44481559 -154.625 51.3125 C-154.05281738 50.88485352 -153.48063477 50.45720703 -152.89111328 50.01660156 C-144.15331805 43.50454092 -135.11013992 37.67435518 -125.625 32.3125 C-124.91778809 31.9103125 -124.21057617 31.508125 -123.48193359 31.09375 C-97.33439144 16.37245949 -68.31333558 6.67328667 -38.625 2.3125 C-37.42037109 2.13517334 -36.21574219 1.95784668 -34.97460938 1.77514648 C-23.31732646 0.176175 -11.75313902 -0.0459053 0 0 Z " fill="#00A3C5" transform="translate(255.625,-0.3125)"/>
<path d="M0 0 C10.08510479 8.84264102 10.08510479 8.84264102 11.51171875 15.76171875 C11.60088536 21.75817324 10.17840107 26.05076446 6.04296875 30.48828125 C1.32880112 33.28186207 -2.51806101 34.08162346 -7.95703125 33.48828125 C-12.63056863 31.52247855 -15.73875297 29.0300799 -19.33203125 25.48828125 C-49.2573435 -2.84581325 -88.2500537 -13.50876747 -128.57324219 -12.64355469 C-135.88644407 -12.35862474 -142.85989671 -11.26005673 -149.95703125 -9.51171875 C-150.73385254 -9.32367676 -151.51067383 -9.13563477 -152.31103516 -8.94189453 C-178.70848549 -2.32014337 -200.97171778 10.95180202 -220.6328125 29.60546875 C-225.14907671 33.26402228 -229.21114328 34.07260884 -234.95703125 33.48828125 C-239.38172818 32.10452772 -242.870462 30.23090414 -245.45703125 26.30078125 C-247.43059248 22.18625852 -247.94061161 17.94332171 -246.95703125 13.48828125 C-244.45331596 8.36996352 -241.52210016 4.61277166 -237.26953125 0.80078125 C-236.70919189 0.29313232 -236.14885254 -0.2145166 -235.5715332 -0.73754883 C-167.86544075 -60.61261957 -67.56937118 -57.39379877 0 0 Z " fill="#00A3C5" transform="translate(373.95703125,124.51171875)"/>
<path d="M0 0 C0.02465622 4.25414623 0.04283899 8.50825498 0.05493164 12.76245117 C0.05997101 14.21070073 0.06680253 15.65894517 0.07543945 17.10717773 C0.08752247 19.18474588 0.09323211 21.26224697 0.09765625 23.33984375 C0.10289307 24.59144287 0.10812988 25.84304199 0.11352539 27.13256836 C0 30 0 30 -1 31 C-2.95805382 31.09672055 -4.91675276 31.18555197 -6.87646484 31.23901367 C-53.45340084 32.57549201 -99.03099463 48.68208793 -136 77 C-137.22396484 77.93392578 -137.22396484 77.93392578 -138.47265625 78.88671875 C-143.81753695 83.0626715 -148.85234952 87.51323135 -153.80249023 92.14379883 C-159.90794509 97.84436891 -164.04451898 101.46519059 -172.58203125 101.33984375 C-176.81267461 100.7452299 -179.89930642 98.8896135 -183 96 C-185.79358082 91.28583237 -186.59334221 87.43897024 -186 82 C-183.85850145 76.69441883 -180.70728287 73.23762205 -176.6875 69.3125 C-175.7603418 68.39839355 -175.7603418 68.39839355 -174.81445312 67.46582031 C-168.60054317 61.44393087 -161.95527985 56.13231559 -155 51 C-154.42781738 50.57235352 -153.85563477 50.14470703 -153.26611328 49.70410156 C-144.52831805 43.19204092 -135.48513992 37.36185518 -126 32 C-125.29278809 31.5978125 -124.58557617 31.195625 -123.85693359 30.78125 C-97.57880522 15.98643834 -68.74601958 6.67524529 -39 2 C-38.27296875 1.88285645 -37.5459375 1.76571289 -36.796875 1.64501953 C-24.55234679 -0.26251924 -12.3678087 -0.22433586 0 0 Z " fill="#00DCE5" transform="translate(256,0)"/>
<path d="M0 0 C3.55464429 3.42271935 6.37732225 6.2890586 7.10546875 11.34375 C7.20218487 17.48522343 6.5023433 21.06826495 2.76953125 26.01171875 C-1.05058039 29.19514512 -5.31553304 30.13048114 -10.23046875 30.01171875 C-16.53060872 28.95339484 -20.34964757 25.29390985 -24.90234375 21.06640625 C-36.5889436 10.75239363 -52.60815947 6.62481078 -67.921875 6.796875 C-85.59094975 7.94421752 -98.51140496 15.20453476 -111.90234375 26.20703125 C-115.7963306 29.22552441 -119.35675589 30.26733252 -124.23046875 29.88671875 C-128.31921733 29.20656363 -131.05824401 27.74130748 -134.23046875 25.01171875 C-137.77106661 20.05488175 -138.07920713 14.90466366 -137.23046875 9.01171875 C-135.66796875 5.82421875 -135.66796875 5.82421875 -133.23046875 3.01171875 C-132.8025 2.49480469 -132.37453125 1.97789062 -131.93359375 1.4453125 C-119.18418011 -12.71705162 -99.61168796 -20.7430095 -81.23046875 -23.98828125 C-79.97234375 -24.21515625 -78.71421875 -24.44203125 -77.41796875 -24.67578125 C-48.93299339 -27.47660519 -21.5010072 -19.16639696 0 0 Z " fill="#00A3C5" transform="translate(321.23046875,184.98828125)"/>
<path d="M0 0 C0 10.23 0 20.46 0 31 C-3.196875 31.226875 -6.39375 31.45375 -9.6875 31.6875 C-45.16262229 34.68431154 -77.15395698 49.20810302 -102.66796875 74.0390625 C-106.07368791 76.90283305 -108.92335132 77.87811524 -113.3125 78.375 C-118.49846073 77.84761416 -122.78194344 76.39823482 -126.39453125 72.4921875 C-128.94146998 68.62228059 -129.46305613 64.97523952 -129.53125 60.40625 C-128.12882851 54.05410558 -124.02899071 49.54034856 -119.3125 45.3125 C-118.75216064 44.80485107 -118.19182129 44.29720215 -117.61450195 43.77416992 C-91.21023274 20.42387116 -58.63396148 6.3901868 -24 1 C-23.18917969 0.86851563 -22.37835938 0.73703125 -21.54296875 0.6015625 C-14.34289759 -0.38694449 -7.34675405 0 0 0 Z " fill="#00DCE5" transform="translate(256,80)"/>
<path d="M0 0 C0 10.23 0 20.46 0 31 C-2.495625 31.37125 -4.99125 31.7425 -7.5625 32.125 C-21.7923163 34.53236174 -32.86257979 39.74685632 -44 49 C-48.81133333 52.96352129 -52.59371862 55.37530007 -59 54.875 C-63.08874858 54.19484488 -65.82777526 52.72958873 -69 50 C-72.54059786 45.043163 -72.84873838 39.89294491 -72 34 C-70.4375 30.8125 -70.4375 30.8125 -68 28 C-67.57203125 27.48308594 -67.1440625 26.96617187 -66.703125 26.43359375 C-50.29811279 8.21050029 -23.77891936 0 0 0 Z " fill="#00DCE5" transform="translate(256,160)"/>
</svg>
